<mxfile host="app.diagrams.net" agent="Mozilla/5.0 (Windows NT 10.0; Win64; x64) AppleWebKit/537.36 (KHTML, like Gecko) Chrome/130.0.0.0 Safari/537.36" version="24.8.4">
  <diagram name="Page-1" id="1yyVJHCJFoUh_ANxWsWU">
    <mxGraphModel dx="794" dy="492" grid="1" gridSize="10" guides="1" tooltips="1" connect="1" arrows="1" fold="1" page="1" pageScale="1" pageWidth="1654" pageHeight="1169" math="0" shadow="0">
      <root>
        <mxCell id="0" />
        <mxCell id="1" parent="0" />
        <mxCell id="z7n6qCbWcTGNJwK7lzTa-3" style="edgeStyle=orthogonalEdgeStyle;rounded=0;orthogonalLoop=1;jettySize=auto;html=1;entryX=0.25;entryY=1;entryDx=0;entryDy=0;" edge="1" parent="1" source="z7n6qCbWcTGNJwK7lzTa-1" target="z7n6qCbWcTGNJwK7lzTa-2">
          <mxGeometry relative="1" as="geometry" />
        </mxCell>
        <mxCell id="z7n6qCbWcTGNJwK7lzTa-20" value="y" style="edgeLabel;html=1;align=center;verticalAlign=middle;resizable=0;points=[];" vertex="1" connectable="0" parent="z7n6qCbWcTGNJwK7lzTa-3">
          <mxGeometry x="-0.4917" relative="1" as="geometry">
            <mxPoint x="1" y="1" as="offset" />
          </mxGeometry>
        </mxCell>
        <mxCell id="z7n6qCbWcTGNJwK7lzTa-8" style="edgeStyle=orthogonalEdgeStyle;rounded=0;orthogonalLoop=1;jettySize=auto;html=1;" edge="1" parent="1" target="z7n6qCbWcTGNJwK7lzTa-1">
          <mxGeometry relative="1" as="geometry">
            <mxPoint x="80" y="360" as="sourcePoint" />
            <Array as="points">
              <mxPoint x="180" y="360" />
            </Array>
          </mxGeometry>
        </mxCell>
        <mxCell id="z7n6qCbWcTGNJwK7lzTa-13" value="Shift[3:0]" style="edgeLabel;html=1;align=center;verticalAlign=middle;resizable=0;points=[];" vertex="1" connectable="0" parent="z7n6qCbWcTGNJwK7lzTa-8">
          <mxGeometry x="-0.7423" relative="1" as="geometry">
            <mxPoint y="1" as="offset" />
          </mxGeometry>
        </mxCell>
        <mxCell id="z7n6qCbWcTGNJwK7lzTa-9" style="edgeStyle=orthogonalEdgeStyle;rounded=0;orthogonalLoop=1;jettySize=auto;html=1;entryX=1;entryY=0.5;entryDx=0;entryDy=0;" edge="1" parent="1" source="z7n6qCbWcTGNJwK7lzTa-1" target="z7n6qCbWcTGNJwK7lzTa-2">
          <mxGeometry relative="1" as="geometry">
            <Array as="points">
              <mxPoint x="180" y="360" />
              <mxPoint x="340" y="360" />
            </Array>
          </mxGeometry>
        </mxCell>
        <mxCell id="z7n6qCbWcTGNJwK7lzTa-14" value="Shift[3]" style="edgeLabel;html=1;align=center;verticalAlign=middle;resizable=0;points=[];" vertex="1" connectable="0" parent="z7n6qCbWcTGNJwK7lzTa-9">
          <mxGeometry x="-0.6111" relative="1" as="geometry">
            <mxPoint y="32" as="offset" />
          </mxGeometry>
        </mxCell>
        <mxCell id="z7n6qCbWcTGNJwK7lzTa-15" style="edgeStyle=orthogonalEdgeStyle;rounded=0;orthogonalLoop=1;jettySize=auto;html=1;entryX=0.25;entryY=1;entryDx=0;entryDy=0;" edge="1" parent="1" target="z7n6qCbWcTGNJwK7lzTa-1">
          <mxGeometry relative="1" as="geometry">
            <mxPoint x="80" y="120" as="sourcePoint" />
          </mxGeometry>
        </mxCell>
        <mxCell id="z7n6qCbWcTGNJwK7lzTa-17" value="i_data" style="edgeLabel;html=1;align=center;verticalAlign=middle;resizable=0;points=[];" vertex="1" connectable="0" parent="z7n6qCbWcTGNJwK7lzTa-15">
          <mxGeometry x="-0.4421" y="4" relative="1" as="geometry">
            <mxPoint as="offset" />
          </mxGeometry>
        </mxCell>
        <mxCell id="z7n6qCbWcTGNJwK7lzTa-16" style="edgeStyle=orthogonalEdgeStyle;rounded=0;orthogonalLoop=1;jettySize=auto;html=1;exitX=0.75;exitY=1;exitDx=0;exitDy=0;entryX=0.75;entryY=1;entryDx=0;entryDy=0;" edge="1" parent="1" target="z7n6qCbWcTGNJwK7lzTa-1">
          <mxGeometry relative="1" as="geometry">
            <mxPoint x="80" y="180" as="sourcePoint" />
          </mxGeometry>
        </mxCell>
        <mxCell id="z7n6qCbWcTGNJwK7lzTa-18" value="{8{fillbit},i_data[15:0]}" style="edgeLabel;html=1;align=center;verticalAlign=middle;resizable=0;points=[];" vertex="1" connectable="0" parent="z7n6qCbWcTGNJwK7lzTa-16">
          <mxGeometry x="-0.3418" y="1" relative="1" as="geometry">
            <mxPoint x="-16" y="1" as="offset" />
          </mxGeometry>
        </mxCell>
        <mxCell id="z7n6qCbWcTGNJwK7lzTa-1" value="MUX" style="shape=trapezoid;perimeter=trapezoidPerimeter;whiteSpace=wrap;html=1;fixedSize=1;rotation=90;fillColor=#f5f5f5;fontColor=#333333;strokeColor=#666666;" vertex="1" parent="1">
          <mxGeometry x="120" y="130" width="120" height="40" as="geometry" />
        </mxCell>
        <mxCell id="z7n6qCbWcTGNJwK7lzTa-5" style="edgeStyle=orthogonalEdgeStyle;rounded=0;orthogonalLoop=1;jettySize=auto;html=1;entryX=0.25;entryY=1;entryDx=0;entryDy=0;" edge="1" parent="1" source="z7n6qCbWcTGNJwK7lzTa-2" target="z7n6qCbWcTGNJwK7lzTa-4">
          <mxGeometry relative="1" as="geometry" />
        </mxCell>
        <mxCell id="z7n6qCbWcTGNJwK7lzTa-25" value="y" style="edgeLabel;html=1;align=center;verticalAlign=middle;resizable=0;points=[];" vertex="1" connectable="0" parent="z7n6qCbWcTGNJwK7lzTa-5">
          <mxGeometry x="-0.325" relative="1" as="geometry">
            <mxPoint y="1" as="offset" />
          </mxGeometry>
        </mxCell>
        <mxCell id="z7n6qCbWcTGNJwK7lzTa-10" style="edgeStyle=orthogonalEdgeStyle;rounded=0;orthogonalLoop=1;jettySize=auto;html=1;entryX=1;entryY=0.5;entryDx=0;entryDy=0;" edge="1" parent="1" source="z7n6qCbWcTGNJwK7lzTa-2" target="z7n6qCbWcTGNJwK7lzTa-4">
          <mxGeometry relative="1" as="geometry">
            <Array as="points">
              <mxPoint x="340" y="360" />
              <mxPoint x="500" y="360" />
            </Array>
          </mxGeometry>
        </mxCell>
        <mxCell id="z7n6qCbWcTGNJwK7lzTa-33" value="Shift[2]" style="edgeLabel;html=1;align=center;verticalAlign=middle;resizable=0;points=[];" vertex="1" connectable="0" parent="z7n6qCbWcTGNJwK7lzTa-10">
          <mxGeometry x="-0.5308" relative="1" as="geometry">
            <mxPoint y="1" as="offset" />
          </mxGeometry>
        </mxCell>
        <mxCell id="z7n6qCbWcTGNJwK7lzTa-2" value="MUX" style="shape=trapezoid;perimeter=trapezoidPerimeter;whiteSpace=wrap;html=1;fixedSize=1;rotation=90;fillColor=#f5f5f5;fontColor=#333333;strokeColor=#666666;" vertex="1" parent="1">
          <mxGeometry x="280" y="160" width="120" height="40" as="geometry" />
        </mxCell>
        <mxCell id="z7n6qCbWcTGNJwK7lzTa-7" style="edgeStyle=orthogonalEdgeStyle;rounded=0;orthogonalLoop=1;jettySize=auto;html=1;entryX=0.25;entryY=1;entryDx=0;entryDy=0;" edge="1" parent="1" source="z7n6qCbWcTGNJwK7lzTa-4" target="z7n6qCbWcTGNJwK7lzTa-6">
          <mxGeometry relative="1" as="geometry" />
        </mxCell>
        <mxCell id="z7n6qCbWcTGNJwK7lzTa-34" value="y" style="edgeLabel;html=1;align=center;verticalAlign=middle;resizable=0;points=[];" vertex="1" connectable="0" parent="z7n6qCbWcTGNJwK7lzTa-7">
          <mxGeometry x="-0.2083" y="2" relative="1" as="geometry">
            <mxPoint y="1" as="offset" />
          </mxGeometry>
        </mxCell>
        <mxCell id="z7n6qCbWcTGNJwK7lzTa-11" style="edgeStyle=orthogonalEdgeStyle;rounded=0;orthogonalLoop=1;jettySize=auto;html=1;entryX=1;entryY=0.5;entryDx=0;entryDy=0;" edge="1" parent="1" source="z7n6qCbWcTGNJwK7lzTa-4" target="z7n6qCbWcTGNJwK7lzTa-6">
          <mxGeometry relative="1" as="geometry">
            <Array as="points">
              <mxPoint x="500" y="360" />
              <mxPoint x="660" y="360" />
            </Array>
          </mxGeometry>
        </mxCell>
        <mxCell id="z7n6qCbWcTGNJwK7lzTa-31" value="Shift[0]" style="edgeLabel;html=1;align=center;verticalAlign=middle;resizable=0;points=[];" vertex="1" connectable="0" parent="z7n6qCbWcTGNJwK7lzTa-11">
          <mxGeometry x="0.8091" y="1" relative="1" as="geometry">
            <mxPoint x="1" y="1" as="offset" />
          </mxGeometry>
        </mxCell>
        <mxCell id="z7n6qCbWcTGNJwK7lzTa-32" value="Shift[1]" style="edgeLabel;html=1;align=center;verticalAlign=middle;resizable=0;points=[];" vertex="1" connectable="0" parent="z7n6qCbWcTGNJwK7lzTa-11">
          <mxGeometry x="-0.6273" y="1" relative="1" as="geometry">
            <mxPoint y="1" as="offset" />
          </mxGeometry>
        </mxCell>
        <mxCell id="z7n6qCbWcTGNJwK7lzTa-4" value="MUX" style="shape=trapezoid;perimeter=trapezoidPerimeter;whiteSpace=wrap;html=1;fixedSize=1;rotation=90;fillColor=#f5f5f5;fontColor=#333333;strokeColor=#666666;" vertex="1" parent="1">
          <mxGeometry x="440" y="190" width="120" height="40" as="geometry" />
        </mxCell>
        <mxCell id="z7n6qCbWcTGNJwK7lzTa-12" style="edgeStyle=orthogonalEdgeStyle;rounded=0;orthogonalLoop=1;jettySize=auto;html=1;" edge="1" parent="1" source="z7n6qCbWcTGNJwK7lzTa-6">
          <mxGeometry relative="1" as="geometry">
            <mxPoint x="780" y="240" as="targetPoint" />
          </mxGeometry>
        </mxCell>
        <mxCell id="z7n6qCbWcTGNJwK7lzTa-35" value="o_data" style="edgeLabel;html=1;align=center;verticalAlign=middle;resizable=0;points=[];" vertex="1" connectable="0" parent="z7n6qCbWcTGNJwK7lzTa-12">
          <mxGeometry x="-0.1343" relative="1" as="geometry">
            <mxPoint y="1" as="offset" />
          </mxGeometry>
        </mxCell>
        <mxCell id="z7n6qCbWcTGNJwK7lzTa-6" value="MUX" style="shape=trapezoid;perimeter=trapezoidPerimeter;whiteSpace=wrap;html=1;fixedSize=1;rotation=90;fillColor=#f5f5f5;fontColor=#333333;strokeColor=#666666;" vertex="1" parent="1">
          <mxGeometry x="600" y="220" width="120" height="40" as="geometry" />
        </mxCell>
        <mxCell id="z7n6qCbWcTGNJwK7lzTa-23" style="edgeStyle=orthogonalEdgeStyle;rounded=0;orthogonalLoop=1;jettySize=auto;html=1;exitX=0.75;exitY=1;exitDx=0;exitDy=0;entryX=0.75;entryY=1;entryDx=0;entryDy=0;" edge="1" parent="1">
          <mxGeometry relative="1" as="geometry">
            <mxPoint x="320" y="209.5" as="targetPoint" />
            <mxPoint x="240" y="209.5" as="sourcePoint" />
          </mxGeometry>
        </mxCell>
        <mxCell id="z7n6qCbWcTGNJwK7lzTa-24" value="{4{fillbit},y[15:4]}" style="edgeLabel;html=1;align=center;verticalAlign=middle;resizable=0;points=[];" vertex="1" connectable="0" parent="z7n6qCbWcTGNJwK7lzTa-23">
          <mxGeometry x="-0.3418" y="1" relative="1" as="geometry">
            <mxPoint x="-16" y="1" as="offset" />
          </mxGeometry>
        </mxCell>
        <mxCell id="z7n6qCbWcTGNJwK7lzTa-26" style="edgeStyle=orthogonalEdgeStyle;rounded=0;orthogonalLoop=1;jettySize=auto;html=1;exitX=0.75;exitY=1;exitDx=0;exitDy=0;entryX=0.75;entryY=1;entryDx=0;entryDy=0;" edge="1" parent="1">
          <mxGeometry relative="1" as="geometry">
            <mxPoint x="480" y="239.5" as="targetPoint" />
            <mxPoint x="400" y="239.5" as="sourcePoint" />
          </mxGeometry>
        </mxCell>
        <mxCell id="z7n6qCbWcTGNJwK7lzTa-27" value="{2{fillbit},y[15:2]}" style="edgeLabel;html=1;align=center;verticalAlign=middle;resizable=0;points=[];" vertex="1" connectable="0" parent="z7n6qCbWcTGNJwK7lzTa-26">
          <mxGeometry x="-0.3418" y="1" relative="1" as="geometry">
            <mxPoint x="-16" y="1" as="offset" />
          </mxGeometry>
        </mxCell>
        <mxCell id="z7n6qCbWcTGNJwK7lzTa-29" style="edgeStyle=orthogonalEdgeStyle;rounded=0;orthogonalLoop=1;jettySize=auto;html=1;exitX=0.75;exitY=1;exitDx=0;exitDy=0;entryX=0.75;entryY=1;entryDx=0;entryDy=0;" edge="1" parent="1">
          <mxGeometry relative="1" as="geometry">
            <mxPoint x="640" y="270" as="targetPoint" />
            <mxPoint x="560" y="270" as="sourcePoint" />
          </mxGeometry>
        </mxCell>
        <mxCell id="z7n6qCbWcTGNJwK7lzTa-30" value="{fillbit,y[15:1]}" style="edgeLabel;html=1;align=center;verticalAlign=middle;resizable=0;points=[];" vertex="1" connectable="0" parent="z7n6qCbWcTGNJwK7lzTa-29">
          <mxGeometry x="-0.3418" y="1" relative="1" as="geometry">
            <mxPoint x="-16" y="1" as="offset" />
          </mxGeometry>
        </mxCell>
        <mxCell id="z7n6qCbWcTGNJwK7lzTa-37" style="edgeStyle=orthogonalEdgeStyle;rounded=0;orthogonalLoop=1;jettySize=auto;html=1;" edge="1" parent="1" source="z7n6qCbWcTGNJwK7lzTa-36">
          <mxGeometry relative="1" as="geometry">
            <mxPoint x="660" y="60" as="targetPoint" />
          </mxGeometry>
        </mxCell>
        <mxCell id="z7n6qCbWcTGNJwK7lzTa-38" value="fillbit" style="edgeLabel;html=1;align=center;verticalAlign=middle;resizable=0;points=[];" vertex="1" connectable="0" parent="z7n6qCbWcTGNJwK7lzTa-37">
          <mxGeometry x="-0.0534" y="-1" relative="1" as="geometry">
            <mxPoint x="1" y="1" as="offset" />
          </mxGeometry>
        </mxCell>
        <mxCell id="z7n6qCbWcTGNJwK7lzTa-40" style="edgeStyle=orthogonalEdgeStyle;rounded=0;orthogonalLoop=1;jettySize=auto;html=1;entryX=0;entryY=0.75;entryDx=0;entryDy=0;entryPerimeter=0;" edge="1" parent="1" target="z7n6qCbWcTGNJwK7lzTa-36">
          <mxGeometry relative="1" as="geometry">
            <mxPoint x="400" y="75" as="sourcePoint" />
          </mxGeometry>
        </mxCell>
        <mxCell id="z7n6qCbWcTGNJwK7lzTa-41" value="i_arith" style="edgeLabel;html=1;align=center;verticalAlign=middle;resizable=0;points=[];" vertex="1" connectable="0" parent="z7n6qCbWcTGNJwK7lzTa-40">
          <mxGeometry x="-0.4939" y="1" relative="1" as="geometry">
            <mxPoint as="offset" />
          </mxGeometry>
        </mxCell>
        <mxCell id="z7n6qCbWcTGNJwK7lzTa-43" style="edgeStyle=orthogonalEdgeStyle;rounded=0;orthogonalLoop=1;jettySize=auto;html=1;exitX=0;exitY=0.25;exitDx=0;exitDy=0;exitPerimeter=0;entryX=0;entryY=0.25;entryDx=0;entryDy=0;entryPerimeter=0;" edge="1" parent="1" target="z7n6qCbWcTGNJwK7lzTa-36">
          <mxGeometry relative="1" as="geometry">
            <mxPoint x="400" y="45" as="sourcePoint" />
          </mxGeometry>
        </mxCell>
        <mxCell id="z7n6qCbWcTGNJwK7lzTa-44" value="i_data[15]" style="edgeLabel;html=1;align=center;verticalAlign=middle;resizable=0;points=[];" vertex="1" connectable="0" parent="z7n6qCbWcTGNJwK7lzTa-43">
          <mxGeometry x="-0.5852" y="1" relative="1" as="geometry">
            <mxPoint x="15" as="offset" />
          </mxGeometry>
        </mxCell>
        <mxCell id="z7n6qCbWcTGNJwK7lzTa-36" value="&amp;amp;" style="shape=or;whiteSpace=wrap;html=1;fillColor=#f5f5f5;fontColor=#333333;strokeColor=#666666;" vertex="1" parent="1">
          <mxGeometry x="520" y="30" width="30" height="60" as="geometry" />
        </mxCell>
        <mxCell id="z7n6qCbWcTGNJwK7lzTa-46" style="edgeStyle=orthogonalEdgeStyle;rounded=0;orthogonalLoop=1;jettySize=auto;html=1;entryX=0.25;entryY=1;entryDx=0;entryDy=0;" edge="1" parent="1" source="z7n6qCbWcTGNJwK7lzTa-56" target="z7n6qCbWcTGNJwK7lzTa-61">
          <mxGeometry relative="1" as="geometry" />
        </mxCell>
        <mxCell id="z7n6qCbWcTGNJwK7lzTa-47" value="y" style="edgeLabel;html=1;align=center;verticalAlign=middle;resizable=0;points=[];" vertex="1" connectable="0" parent="z7n6qCbWcTGNJwK7lzTa-46">
          <mxGeometry x="-0.4917" relative="1" as="geometry">
            <mxPoint x="1" y="1" as="offset" />
          </mxGeometry>
        </mxCell>
        <mxCell id="z7n6qCbWcTGNJwK7lzTa-48" style="edgeStyle=orthogonalEdgeStyle;rounded=0;orthogonalLoop=1;jettySize=auto;html=1;" edge="1" parent="1" target="z7n6qCbWcTGNJwK7lzTa-56">
          <mxGeometry relative="1" as="geometry">
            <mxPoint x="80" y="660" as="sourcePoint" />
            <Array as="points">
              <mxPoint x="180" y="660" />
            </Array>
          </mxGeometry>
        </mxCell>
        <mxCell id="z7n6qCbWcTGNJwK7lzTa-49" value="Shift[3:0]" style="edgeLabel;html=1;align=center;verticalAlign=middle;resizable=0;points=[];" vertex="1" connectable="0" parent="z7n6qCbWcTGNJwK7lzTa-48">
          <mxGeometry x="-0.7423" relative="1" as="geometry">
            <mxPoint y="1" as="offset" />
          </mxGeometry>
        </mxCell>
        <mxCell id="z7n6qCbWcTGNJwK7lzTa-50" style="edgeStyle=orthogonalEdgeStyle;rounded=0;orthogonalLoop=1;jettySize=auto;html=1;entryX=1;entryY=0.5;entryDx=0;entryDy=0;" edge="1" parent="1" source="z7n6qCbWcTGNJwK7lzTa-56" target="z7n6qCbWcTGNJwK7lzTa-61">
          <mxGeometry relative="1" as="geometry">
            <Array as="points">
              <mxPoint x="180" y="660" />
              <mxPoint x="340" y="660" />
            </Array>
          </mxGeometry>
        </mxCell>
        <mxCell id="z7n6qCbWcTGNJwK7lzTa-51" value="Shift[3]" style="edgeLabel;html=1;align=center;verticalAlign=middle;resizable=0;points=[];" vertex="1" connectable="0" parent="z7n6qCbWcTGNJwK7lzTa-50">
          <mxGeometry x="-0.6111" relative="1" as="geometry">
            <mxPoint y="32" as="offset" />
          </mxGeometry>
        </mxCell>
        <mxCell id="z7n6qCbWcTGNJwK7lzTa-52" style="edgeStyle=orthogonalEdgeStyle;rounded=0;orthogonalLoop=1;jettySize=auto;html=1;entryX=0.25;entryY=1;entryDx=0;entryDy=0;" edge="1" parent="1" target="z7n6qCbWcTGNJwK7lzTa-56">
          <mxGeometry relative="1" as="geometry">
            <mxPoint x="80" y="420" as="sourcePoint" />
          </mxGeometry>
        </mxCell>
        <mxCell id="z7n6qCbWcTGNJwK7lzTa-53" value="i_data" style="edgeLabel;html=1;align=center;verticalAlign=middle;resizable=0;points=[];" vertex="1" connectable="0" parent="z7n6qCbWcTGNJwK7lzTa-52">
          <mxGeometry x="-0.4421" y="4" relative="1" as="geometry">
            <mxPoint as="offset" />
          </mxGeometry>
        </mxCell>
        <mxCell id="z7n6qCbWcTGNJwK7lzTa-54" style="edgeStyle=orthogonalEdgeStyle;rounded=0;orthogonalLoop=1;jettySize=auto;html=1;exitX=0.75;exitY=1;exitDx=0;exitDy=0;entryX=0.75;entryY=1;entryDx=0;entryDy=0;" edge="1" parent="1" target="z7n6qCbWcTGNJwK7lzTa-56">
          <mxGeometry relative="1" as="geometry">
            <mxPoint x="80" y="480" as="sourcePoint" />
          </mxGeometry>
        </mxCell>
        <mxCell id="z7n6qCbWcTGNJwK7lzTa-55" value="{i_data[7:0], 8&#39;b0}" style="edgeLabel;html=1;align=center;verticalAlign=middle;resizable=0;points=[];" vertex="1" connectable="0" parent="z7n6qCbWcTGNJwK7lzTa-54">
          <mxGeometry x="-0.3418" y="1" relative="1" as="geometry">
            <mxPoint x="-16" y="1" as="offset" />
          </mxGeometry>
        </mxCell>
        <mxCell id="z7n6qCbWcTGNJwK7lzTa-56" value="MUX" style="shape=trapezoid;perimeter=trapezoidPerimeter;whiteSpace=wrap;html=1;fixedSize=1;rotation=90;fillColor=#f5f5f5;fontColor=#333333;strokeColor=#666666;" vertex="1" parent="1">
          <mxGeometry x="120" y="430" width="120" height="40" as="geometry" />
        </mxCell>
        <mxCell id="z7n6qCbWcTGNJwK7lzTa-57" style="edgeStyle=orthogonalEdgeStyle;rounded=0;orthogonalLoop=1;jettySize=auto;html=1;entryX=0.25;entryY=1;entryDx=0;entryDy=0;" edge="1" parent="1" source="z7n6qCbWcTGNJwK7lzTa-61" target="z7n6qCbWcTGNJwK7lzTa-67">
          <mxGeometry relative="1" as="geometry" />
        </mxCell>
        <mxCell id="z7n6qCbWcTGNJwK7lzTa-58" value="y" style="edgeLabel;html=1;align=center;verticalAlign=middle;resizable=0;points=[];" vertex="1" connectable="0" parent="z7n6qCbWcTGNJwK7lzTa-57">
          <mxGeometry x="-0.325" relative="1" as="geometry">
            <mxPoint y="1" as="offset" />
          </mxGeometry>
        </mxCell>
        <mxCell id="z7n6qCbWcTGNJwK7lzTa-59" style="edgeStyle=orthogonalEdgeStyle;rounded=0;orthogonalLoop=1;jettySize=auto;html=1;entryX=1;entryY=0.5;entryDx=0;entryDy=0;" edge="1" parent="1" source="z7n6qCbWcTGNJwK7lzTa-61" target="z7n6qCbWcTGNJwK7lzTa-67">
          <mxGeometry relative="1" as="geometry">
            <Array as="points">
              <mxPoint x="340" y="660" />
              <mxPoint x="500" y="660" />
            </Array>
          </mxGeometry>
        </mxCell>
        <mxCell id="z7n6qCbWcTGNJwK7lzTa-60" value="Shift[2]" style="edgeLabel;html=1;align=center;verticalAlign=middle;resizable=0;points=[];" vertex="1" connectable="0" parent="z7n6qCbWcTGNJwK7lzTa-59">
          <mxGeometry x="-0.5308" relative="1" as="geometry">
            <mxPoint y="1" as="offset" />
          </mxGeometry>
        </mxCell>
        <mxCell id="z7n6qCbWcTGNJwK7lzTa-61" value="MUX" style="shape=trapezoid;perimeter=trapezoidPerimeter;whiteSpace=wrap;html=1;fixedSize=1;rotation=90;fillColor=#f5f5f5;fontColor=#333333;strokeColor=#666666;" vertex="1" parent="1">
          <mxGeometry x="280" y="460" width="120" height="40" as="geometry" />
        </mxCell>
        <mxCell id="z7n6qCbWcTGNJwK7lzTa-62" style="edgeStyle=orthogonalEdgeStyle;rounded=0;orthogonalLoop=1;jettySize=auto;html=1;entryX=0.25;entryY=1;entryDx=0;entryDy=0;" edge="1" parent="1" source="z7n6qCbWcTGNJwK7lzTa-67" target="z7n6qCbWcTGNJwK7lzTa-70">
          <mxGeometry relative="1" as="geometry" />
        </mxCell>
        <mxCell id="z7n6qCbWcTGNJwK7lzTa-63" value="y" style="edgeLabel;html=1;align=center;verticalAlign=middle;resizable=0;points=[];" vertex="1" connectable="0" parent="z7n6qCbWcTGNJwK7lzTa-62">
          <mxGeometry x="-0.2083" y="2" relative="1" as="geometry">
            <mxPoint y="1" as="offset" />
          </mxGeometry>
        </mxCell>
        <mxCell id="z7n6qCbWcTGNJwK7lzTa-64" style="edgeStyle=orthogonalEdgeStyle;rounded=0;orthogonalLoop=1;jettySize=auto;html=1;entryX=1;entryY=0.5;entryDx=0;entryDy=0;" edge="1" parent="1" source="z7n6qCbWcTGNJwK7lzTa-67" target="z7n6qCbWcTGNJwK7lzTa-70">
          <mxGeometry relative="1" as="geometry">
            <Array as="points">
              <mxPoint x="500" y="660" />
              <mxPoint x="660" y="660" />
            </Array>
          </mxGeometry>
        </mxCell>
        <mxCell id="z7n6qCbWcTGNJwK7lzTa-65" value="Shift[0]" style="edgeLabel;html=1;align=center;verticalAlign=middle;resizable=0;points=[];" vertex="1" connectable="0" parent="z7n6qCbWcTGNJwK7lzTa-64">
          <mxGeometry x="0.8091" y="1" relative="1" as="geometry">
            <mxPoint x="1" y="1" as="offset" />
          </mxGeometry>
        </mxCell>
        <mxCell id="z7n6qCbWcTGNJwK7lzTa-66" value="Shift[1]" style="edgeLabel;html=1;align=center;verticalAlign=middle;resizable=0;points=[];" vertex="1" connectable="0" parent="z7n6qCbWcTGNJwK7lzTa-64">
          <mxGeometry x="-0.6273" y="1" relative="1" as="geometry">
            <mxPoint y="1" as="offset" />
          </mxGeometry>
        </mxCell>
        <mxCell id="z7n6qCbWcTGNJwK7lzTa-67" value="MUX" style="shape=trapezoid;perimeter=trapezoidPerimeter;whiteSpace=wrap;html=1;fixedSize=1;rotation=90;fillColor=#f5f5f5;fontColor=#333333;strokeColor=#666666;" vertex="1" parent="1">
          <mxGeometry x="440" y="490" width="120" height="40" as="geometry" />
        </mxCell>
        <mxCell id="z7n6qCbWcTGNJwK7lzTa-68" style="edgeStyle=orthogonalEdgeStyle;rounded=0;orthogonalLoop=1;jettySize=auto;html=1;" edge="1" parent="1" source="z7n6qCbWcTGNJwK7lzTa-70">
          <mxGeometry relative="1" as="geometry">
            <mxPoint x="780" y="540" as="targetPoint" />
          </mxGeometry>
        </mxCell>
        <mxCell id="z7n6qCbWcTGNJwK7lzTa-69" value="o_data" style="edgeLabel;html=1;align=center;verticalAlign=middle;resizable=0;points=[];" vertex="1" connectable="0" parent="z7n6qCbWcTGNJwK7lzTa-68">
          <mxGeometry x="-0.1343" relative="1" as="geometry">
            <mxPoint y="1" as="offset" />
          </mxGeometry>
        </mxCell>
        <mxCell id="z7n6qCbWcTGNJwK7lzTa-70" value="MUX" style="shape=trapezoid;perimeter=trapezoidPerimeter;whiteSpace=wrap;html=1;fixedSize=1;rotation=90;fillColor=#f5f5f5;fontColor=#333333;strokeColor=#666666;" vertex="1" parent="1">
          <mxGeometry x="600" y="520" width="120" height="40" as="geometry" />
        </mxCell>
        <mxCell id="z7n6qCbWcTGNJwK7lzTa-71" style="edgeStyle=orthogonalEdgeStyle;rounded=0;orthogonalLoop=1;jettySize=auto;html=1;exitX=0.75;exitY=1;exitDx=0;exitDy=0;entryX=0.75;entryY=1;entryDx=0;entryDy=0;" edge="1" parent="1">
          <mxGeometry relative="1" as="geometry">
            <mxPoint x="320" y="509.5" as="targetPoint" />
            <mxPoint x="240" y="509.5" as="sourcePoint" />
          </mxGeometry>
        </mxCell>
        <mxCell id="z7n6qCbWcTGNJwK7lzTa-72" value="{y[11:0], 4&#39;b0}" style="edgeLabel;html=1;align=center;verticalAlign=middle;resizable=0;points=[];" vertex="1" connectable="0" parent="z7n6qCbWcTGNJwK7lzTa-71">
          <mxGeometry x="-0.3418" y="1" relative="1" as="geometry">
            <mxPoint x="-16" y="1" as="offset" />
          </mxGeometry>
        </mxCell>
        <mxCell id="z7n6qCbWcTGNJwK7lzTa-73" style="edgeStyle=orthogonalEdgeStyle;rounded=0;orthogonalLoop=1;jettySize=auto;html=1;exitX=0.75;exitY=1;exitDx=0;exitDy=0;entryX=0.75;entryY=1;entryDx=0;entryDy=0;" edge="1" parent="1">
          <mxGeometry relative="1" as="geometry">
            <mxPoint x="480" y="539.5" as="targetPoint" />
            <mxPoint x="400" y="539.5" as="sourcePoint" />
          </mxGeometry>
        </mxCell>
        <mxCell id="z7n6qCbWcTGNJwK7lzTa-74" value="{y[13:0], 2&#39;b0}" style="edgeLabel;html=1;align=center;verticalAlign=middle;resizable=0;points=[];" vertex="1" connectable="0" parent="z7n6qCbWcTGNJwK7lzTa-73">
          <mxGeometry x="-0.3418" y="1" relative="1" as="geometry">
            <mxPoint x="-16" y="1" as="offset" />
          </mxGeometry>
        </mxCell>
        <mxCell id="z7n6qCbWcTGNJwK7lzTa-75" style="edgeStyle=orthogonalEdgeStyle;rounded=0;orthogonalLoop=1;jettySize=auto;html=1;exitX=0.75;exitY=1;exitDx=0;exitDy=0;entryX=0.75;entryY=1;entryDx=0;entryDy=0;" edge="1" parent="1">
          <mxGeometry relative="1" as="geometry">
            <mxPoint x="640" y="570" as="targetPoint" />
            <mxPoint x="560" y="570" as="sourcePoint" />
          </mxGeometry>
        </mxCell>
        <mxCell id="z7n6qCbWcTGNJwK7lzTa-76" value="{y[14:0], 1&#39;b0}" style="edgeLabel;html=1;align=center;verticalAlign=middle;resizable=0;points=[];" vertex="1" connectable="0" parent="z7n6qCbWcTGNJwK7lzTa-75">
          <mxGeometry x="-0.3418" y="1" relative="1" as="geometry">
            <mxPoint x="-16" y="1" as="offset" />
          </mxGeometry>
        </mxCell>
        <mxCell id="z7n6qCbWcTGNJwK7lzTa-77" value="SHIFT LEFT" style="text;html=1;align=center;verticalAlign=middle;whiteSpace=wrap;rounded=0;fillColor=#fff2cc;strokeColor=#d6b656;" vertex="1" parent="1">
          <mxGeometry x="360" y="390" width="120" height="30" as="geometry" />
        </mxCell>
        <mxCell id="z7n6qCbWcTGNJwK7lzTa-78" value="SHIFT RIGHT" style="text;html=1;align=center;verticalAlign=middle;whiteSpace=wrap;rounded=0;fillColor=#fff2cc;strokeColor=#d6b656;" vertex="1" parent="1">
          <mxGeometry x="360" y="100" width="120" height="30" as="geometry" />
        </mxCell>
        <mxCell id="z7n6qCbWcTGNJwK7lzTa-80" style="edgeStyle=orthogonalEdgeStyle;rounded=0;orthogonalLoop=1;jettySize=auto;html=1;" edge="1" parent="1" source="z7n6qCbWcTGNJwK7lzTa-79">
          <mxGeometry relative="1" as="geometry">
            <mxPoint x="1040" y="427.5" as="targetPoint" />
          </mxGeometry>
        </mxCell>
        <mxCell id="z7n6qCbWcTGNJwK7lzTa-81" value="o_data" style="edgeLabel;html=1;align=center;verticalAlign=middle;resizable=0;points=[];" vertex="1" connectable="0" parent="z7n6qCbWcTGNJwK7lzTa-80">
          <mxGeometry x="-0.3022" relative="1" as="geometry">
            <mxPoint as="offset" />
          </mxGeometry>
        </mxCell>
        <mxCell id="z7n6qCbWcTGNJwK7lzTa-82" style="edgeStyle=orthogonalEdgeStyle;rounded=0;orthogonalLoop=1;jettySize=auto;html=1;" edge="1" parent="1" target="z7n6qCbWcTGNJwK7lzTa-79">
          <mxGeometry relative="1" as="geometry">
            <mxPoint x="860" y="770" as="sourcePoint" />
          </mxGeometry>
        </mxCell>
        <mxCell id="z7n6qCbWcTGNJwK7lzTa-83" value="i_right" style="edgeLabel;html=1;align=center;verticalAlign=middle;resizable=0;points=[];" vertex="1" connectable="0" parent="z7n6qCbWcTGNJwK7lzTa-82">
          <mxGeometry x="-0.0945" y="2" relative="1" as="geometry">
            <mxPoint y="1" as="offset" />
          </mxGeometry>
        </mxCell>
        <mxCell id="z7n6qCbWcTGNJwK7lzTa-79" value="MUX" style="shape=trapezoid;perimeter=trapezoidPerimeter;whiteSpace=wrap;html=1;fixedSize=1;rotation=90;fillColor=#f5f5f5;fontColor=#333333;strokeColor=#666666;dashed=1;" vertex="1" parent="1">
          <mxGeometry x="607.5" y="407.5" width="505" height="40" as="geometry" />
        </mxCell>
      </root>
    </mxGraphModel>
  </diagram>
</mxfile>
